<?xml version="1.0" encoding="UTF-8" standalone="no"?>
<!DOCTYPE svg PUBLIC "-//W3C//DTD SVG 1.1//EN" "http://www.w3.org/Graphics/SVG/1.1/DTD/svg11.dtd">
<svg version="1.1" xmlns="http://www.w3.org/2000/svg" xmlns:xlink="http://www.w3.org/1999/xlink" preserveAspectRatio="xMidYMid meet" viewBox="-0.9999999999999858 -1 150.72727272727275 138.7077922077922" width="146.73" height="134.71"><defs><path d="M104.15 0.03L105 0.07L105.85 0.13L106.7 0.2L107.55 0.29L108.4 0.4L109.24 0.52L110.08 0.65L110.92 0.81L111.76 0.98L112.6 1.16L113.43 1.36L114.26 1.58L115.08 1.82L115.9 2.07L116.72 2.33L117.53 2.62L118.34 2.91L119.14 3.23L119.94 3.56L120.73 3.91L121.52 4.27L122.3 4.65L123.08 5.05L123.85 5.46L124.61 5.88L125.36 6.33L126.11 6.79L126.85 7.27L127.58 7.76L128.31 8.27L129.03 8.79L129.73 9.33L130.43 9.89L131.12 10.46L131.81 11.05L132.48 11.66L133.14 12.28L133.79 12.92L134.43 13.57L135.05 14.23L135.66 14.9L136.25 15.58L136.83 16.27L137.38 16.97L137.93 17.68L138.45 18.4L138.96 19.12L139.45 19.86L139.93 20.6L140.39 21.35L140.84 22.1L141.27 22.86L141.68 23.63L142.07 24.41L142.45 25.19L142.82 25.97L143.16 26.77L143.5 27.56L143.81 28.37L144.11 29.18L144.39 29.99L144.66 30.81L144.91 31.63L145.14 32.45L145.36 33.28L145.56 34.11L145.75 34.95L145.92 35.78L146.07 36.62L146.21 37.47L146.33 38.31L146.44 39.16L146.53 40.01L146.6 40.86L146.65 41.71L146.69 42.56L146.72 43.41L146.73 44.26L146.72 45.11L146.69 45.96L146.65 46.81L146.6 47.66L146.53 48.51L146.44 49.36L146.33 50.21L146.21 51.05L146.07 51.89L145.92 52.73L145.75 53.57L145.56 54.41L145.36 55.24L145.14 56.07L144.91 56.89L144.66 57.71L144.39 58.53L144.11 59.34L143.81 60.15L143.5 60.95L143.16 61.75L142.82 62.55L142.45 63.33L142.07 64.11L141.68 64.89L141.27 65.66L140.84 66.42L140.39 67.17L139.93 67.92L139.45 68.66L138.96 69.4L138.45 70.12L137.93 70.84L137.38 71.55L136.83 72.25L136.25 72.94L135.66 73.62L135.05 74.29L134.43 74.95L133.79 75.6L75.62 133.77L75.53 133.86L75.43 133.95L75.33 134.03L75.23 134.11L75.12 134.18L75.02 134.25L74.91 134.31L74.79 134.37L74.68 134.42L74.57 134.47L74.45 134.52L74.33 134.56L74.21 134.59L74.09 134.62L73.97 134.65L73.85 134.67L73.73 134.69L73.61 134.7L73.49 134.71L73.36 134.71L73.24 134.71L73.12 134.7L73 134.69L72.87 134.67L72.75 134.65L72.63 134.62L72.51 134.59L72.39 134.56L72.28 134.52L72.16 134.47L72.05 134.42L71.93 134.37L71.82 134.31L71.71 134.25L71.6 134.18L71.5 134.11L71.4 134.03L71.3 133.95L71.2 133.86L71.1 133.77L12.94 75.6L12.3 74.95L11.67 74.29L11.07 73.62L10.48 72.94L9.9 72.25L9.34 71.55L8.8 70.84L8.28 70.12L7.77 69.4L7.27 68.66L6.8 67.92L6.34 67.17L5.89 66.42L5.46 65.66L5.05 64.89L4.65 64.11L4.27 63.33L3.91 62.55L3.56 61.75L3.23 60.95L2.92 60.15L2.62 59.34L2.33 58.53L2.07 57.71L1.82 56.89L1.58 56.07L1.36 55.24L1.16 54.41L0.98 53.57L0.81 52.73L0.65 51.89L0.52 51.05L0.4 50.21L0.29 49.36L0.2 48.51L0.13 47.66L0.07 46.81L0.03 45.96L0.01 45.11L0 44.26L0.01 43.41L0.03 42.56L0.07 41.71L0.13 40.86L0.2 40.01L0.29 39.16L0.4 38.31L0.52 37.47L0.65 36.62L0.81 35.78L0.98 34.95L1.16 34.11L1.36 33.28L1.58 32.45L1.82 31.63L2.07 30.81L2.33 29.99L2.62 29.18L2.92 28.37L3.23 27.56L3.56 26.77L3.91 25.97L4.27 25.19L4.65 24.41L5.05 23.63L5.46 22.86L5.89 22.1L6.34 21.35L6.8 20.6L7.27 19.86L7.77 19.12L8.28 18.4L8.8 17.68L9.34 16.97L9.9 16.27L10.48 15.58L11.07 14.9L11.67 14.23L12.3 13.57L12.94 12.92L13.59 12.28L14.25 11.66L14.92 11.05L15.6 10.46L16.29 9.89L16.99 9.33L17.7 8.79L18.42 8.27L19.14 7.76L19.88 7.27L20.62 6.79L21.36 6.33L22.12 5.88L22.88 5.46L23.65 5.05L24.43 4.65L25.21 4.27L25.99 3.91L26.79 3.56L27.58 3.23L28.39 2.91L29.2 2.62L30.01 2.33L30.83 2.07L31.65 1.82L32.47 1.58L33.3 1.36L34.13 1.16L34.97 0.98L35.8 0.81L36.64 0.65L37.49 0.52L38.33 0.4L39.18 0.29L40.03 0.2L40.87 0.13L41.73 0.07L42.58 0.03L43.43 0.01L44.28 0L45.06 0.01L45.84 0.03L46.61 0.06L47.39 0.11L48.17 0.17L48.95 0.24L49.72 0.33L50.49 0.43L51.27 0.55L52.04 0.68L52.81 0.82L53.57 0.97L54.34 1.14L55.1 1.32L55.86 1.52L56.61 1.73L57.37 1.95L58.11 2.19L58.86 2.44L59.6 2.7L60.34 2.98L61.08 3.27L61.81 3.57L62.53 3.89L63.25 4.22L63.97 4.57L64.68 4.93L65.38 5.3L66.08 5.68L66.78 6.08L67.47 6.49L68.15 6.92L68.82 7.36L69.49 7.81L70.16 8.28L70.81 8.76L71.46 9.25L72.1 9.76L72.74 10.28L73.36 10.81L73.99 10.28L74.62 9.76L75.27 9.25L75.91 8.76L76.57 8.28L77.23 7.81L77.9 7.36L78.58 6.92L79.26 6.49L79.95 6.08L80.64 5.68L81.34 5.3L82.04 4.93L82.75 4.57L83.47 4.22L84.19 3.89L84.92 3.57L85.64 3.27L86.38 2.98L87.12 2.7L87.86 2.44L88.6 2.19L89.35 1.95L90.11 1.73L90.86 1.52L91.62 1.32L92.38 1.14L93.15 0.97L93.91 0.82L94.68 0.68L95.45 0.55L96.23 0.43L97 0.33L97.78 0.24L98.55 0.17L99.33 0.11L100.11 0.06L100.89 0.03L101.67 0.01L102.45 0L103.3 0.01L104.15 0.03ZM100.99 6.4L100.26 6.43L99.53 6.48L98.81 6.54L98.08 6.62L97.36 6.71L96.63 6.81L95.91 6.93L95.19 7.06L94.48 7.21L93.76 7.36L93.05 7.54L92.34 7.72L91.64 7.92L90.93 8.14L90.23 8.37L89.54 8.61L88.85 8.86L88.16 9.13L87.48 9.42L86.8 9.71L86.12 10.03L85.46 10.35L84.79 10.69L84.13 11.04L83.48 11.41L82.84 11.79L82.2 12.18L81.56 12.59L80.94 13.01L80.32 13.45L79.7 13.9L79.1 14.36L78.5 14.84L77.91 15.33L77.32 15.84L76.75 16.36L76.18 16.89L75.62 17.44L75.53 17.53L75.43 17.61L75.33 17.69L75.23 17.77L75.12 17.84L75.02 17.91L74.91 17.98L74.79 18.03L74.68 18.09L74.57 18.14L74.45 18.18L74.33 18.22L74.21 18.26L74.09 18.29L73.97 18.31L73.85 18.33L73.73 18.35L73.61 18.36L73.49 18.37L73.36 18.37L73.24 18.37L73.12 18.36L73 18.35L72.87 18.33L72.75 18.31L72.63 18.29L72.51 18.26L72.39 18.22L72.28 18.18L72.16 18.14L72.05 18.09L71.93 18.03L71.82 17.98L71.71 17.91L71.6 17.84L71.5 17.77L71.4 17.69L71.3 17.61L71.2 17.53L71.1 17.44L70.55 16.89L69.98 16.36L69.41 15.84L68.83 15.33L68.24 14.84L67.64 14.36L67.03 13.9L66.42 13.45L65.8 13.01L65.17 12.59L64.54 12.18L63.9 11.79L63.25 11.41L62.6 11.04L61.94 10.69L61.28 10.35L60.61 10.03L59.94 9.71L59.26 9.42L58.58 9.13L57.89 8.86L57.2 8.61L56.5 8.37L55.8 8.14L55.1 7.92L54.39 7.72L53.68 7.54L52.97 7.36L52.25 7.21L51.54 7.06L50.82 6.93L50.09 6.81L49.37 6.71L48.65 6.62L47.92 6.54L47.19 6.48L46.47 6.43L45.74 6.4L45.01 6.38L44.28 6.37L43.55 6.38L42.82 6.4L42.09 6.43L41.37 6.48L40.64 6.54L39.91 6.62L39.19 6.71L38.47 6.81L37.74 6.93L37.03 7.06L36.31 7.21L35.59 7.36L34.88 7.54L34.17 7.72L33.47 7.92L32.76 8.14L32.06 8.37L31.37 8.61L30.68 8.86L29.99 9.13L29.31 9.42L28.63 9.71L27.96 10.03L27.29 10.35L26.62 10.69L25.97 11.04L25.31 11.41L24.67 11.79L24.03 12.18L23.39 12.59L22.77 13.01L22.15 13.45L21.53 13.9L20.93 14.36L20.33 14.84L19.74 15.33L19.15 15.84L18.58 16.36L18.01 16.89L17.45 17.44L16.91 17.99L16.38 18.56L15.86 19.13L15.36 19.72L14.86 20.31L14.39 20.91L13.93 21.51L13.48 22.13L13.04 22.75L12.62 23.37L12.21 24.01L11.82 24.65L11.44 25.29L11.07 25.95L10.72 26.6L10.38 27.27L10.05 27.94L9.74 28.61L9.44 29.29L9.16 29.97L8.89 30.66L8.63 31.35L8.39 32.05L8.16 32.74L7.95 33.45L7.75 34.15L7.56 34.86L7.39 35.57L7.23 36.29L7.08 37.01L6.95 37.72L6.83 38.45L6.73 39.17L6.64 39.89L6.56 40.62L6.5 41.35L6.45 42.07L6.42 42.8L6.4 43.53L6.39 44.26L6.4 44.99L6.42 45.72L6.45 46.45L6.5 47.17L6.56 47.9L6.64 48.63L6.73 49.35L6.83 50.07L6.95 50.79L7.08 51.51L7.23 52.23L7.38 52.95L7.56 53.66L7.74 54.37L7.94 55.07L8.16 55.78L8.39 56.47L8.63 57.17L8.88 57.86L9.15 58.55L9.44 59.23L9.73 59.91L10.05 60.58L10.37 61.25L10.71 61.92L11.06 62.57L11.43 63.23L11.81 63.87L12.2 64.51L12.61 65.15L13.03 65.77L13.47 66.39L13.92 67.01L14.38 67.61L14.86 68.21L15.35 68.8L15.86 69.38L16.37 69.96L16.91 70.53L17.45 71.08L73.36 126.99L129.27 71.08L129.82 70.53L130.35 69.96L130.87 69.38L131.38 68.8L131.87 68.21L132.35 67.61L132.81 67.01L133.26 66.39L133.69 65.77L134.12 65.15L134.52 64.51L134.92 63.87L135.3 63.23L135.67 62.57L136.02 61.92L136.36 61.25L136.68 60.58L136.99 59.91L137.29 59.23L137.57 58.55L137.84 57.86L138.1 57.17L138.34 56.47L138.57 55.78L138.78 55.07L138.98 54.37L139.17 53.66L139.34 52.95L139.5 52.23L139.65 51.51L139.78 50.79L139.9 50.07L140 49.35L140.09 48.63L140.17 47.9L140.23 47.17L140.28 46.45L140.31 45.72L140.33 44.99L140.34 44.26L140.33 43.53L140.31 42.8L140.28 42.07L140.23 41.35L140.17 40.62L140.09 39.89L140 39.17L139.9 38.45L139.78 37.72L139.65 37.01L139.5 36.29L139.34 35.57L139.17 34.86L138.98 34.15L138.78 33.45L138.57 32.74L138.34 32.05L138.1 31.35L137.84 30.66L137.57 29.97L137.29 29.29L136.99 28.61L136.68 27.94L136.36 27.27L136.02 26.6L135.67 25.95L135.3 25.29L134.92 24.65L134.52 24.01L134.12 23.37L133.69 22.75L133.26 22.13L132.81 21.51L132.35 20.91L131.87 20.31L131.38 19.72L130.87 19.13L130.35 18.56L129.82 17.99L129.27 17.44L128.72 16.89L128.15 16.36L127.58 15.84L126.99 15.33L126.4 14.84L125.81 14.36L125.2 13.9L124.59 13.45L123.97 13.01L123.34 12.59L122.71 12.18L122.07 11.79L121.42 11.41L120.77 11.04L120.11 10.69L119.45 10.35L118.78 10.03L118.11 9.71L117.43 9.42L116.74 9.13L116.06 8.86L115.36 8.61L114.67 8.37L113.97 8.14L113.27 7.92L112.56 7.72L111.85 7.54L111.14 7.36L110.42 7.21L109.7 7.06L108.99 6.93L108.26 6.81L107.54 6.71L106.82 6.62L106.09 6.54L105.36 6.48L104.63 6.43L103.91 6.4L103.18 6.38L102.45 6.37L101.72 6.38L100.99 6.4Z" id="g4U5gQLIP9"></path></defs><g><g><use xlink:href="#g4U5gQLIP9" opacity="1" fill="#011627" fill-opacity="1"></use><g><use xlink:href="#g4U5gQLIP9" opacity="1" fill-opacity="0" stroke="#000000" stroke-width="1" stroke-opacity="0"></use></g></g></g></svg>